<svg xmlns="http://www.w3.org/2000/svg" xmlns:xlink="http://www.w3.org/1999/xlink" width="500" zoomAndPan="magnify" viewBox="0 0 375 374.999991" height="500" preserveAspectRatio="xMidYMid meet" version="1.0"><defs><clipPath id="c1859bfc46"><path d="M 0 37.5 L 375 37.5 L 375 327 L 0 327 Z M 0 37.5 " clip-rule="nonzero"/></clipPath></defs><g clip-path="url(#c1859bfc46)"><path fill="#ffffff" d="M -3.886719 37.5 L 378.789062 37.5 C 379.742188 37.5 380.695312 37.546875 381.648438 37.640625 C 382.597656 37.734375 383.539062 37.875 384.476562 38.058594 C 385.414062 38.246094 386.339844 38.480469 387.253906 38.757812 C 388.167969 39.035156 389.0625 39.355469 389.945312 39.71875 C 390.828125 40.085938 391.691406 40.492188 392.53125 40.945312 C 393.375 41.394531 394.191406 41.886719 394.988281 42.414062 C 395.78125 42.945312 396.546875 43.515625 397.285156 44.121094 C 398.023438 44.726562 398.730469 45.367188 399.40625 46.042969 C 400.082031 46.71875 400.722656 47.425781 401.328125 48.164062 C 401.933594 48.902344 402.5 49.667969 403.03125 50.464844 C 403.5625 51.257812 404.050781 52.078125 404.503906 52.917969 C 404.953125 53.761719 405.359375 54.625 405.726562 55.507812 C 406.089844 56.390625 406.414062 57.289062 406.691406 58.203125 C 406.96875 59.117188 407.199219 60.042969 407.386719 60.976562 C 407.570312 61.914062 407.710938 62.859375 407.804688 63.808594 C 407.898438 64.761719 407.945312 65.714844 407.945312 66.667969 L 407.945312 297.832031 C 407.945312 298.785156 407.898438 299.738281 407.804688 300.691406 C 407.710938 301.640625 407.570312 302.585938 407.386719 303.523438 C 407.199219 304.457031 406.96875 305.382812 406.691406 306.296875 C 406.414062 307.210938 406.089844 308.109375 405.726562 308.992188 C 405.359375 309.875 404.953125 310.738281 404.503906 311.582031 C 404.050781 312.421875 403.5625 313.242188 403.03125 314.035156 C 402.5 314.832031 401.933594 315.597656 401.328125 316.335938 C 400.722656 317.074219 400.082031 317.78125 399.40625 318.457031 C 398.730469 319.132812 398.023438 319.773438 397.285156 320.378906 C 396.546875 320.984375 395.78125 321.554688 394.988281 322.085938 C 394.191406 322.613281 393.375 323.105469 392.53125 323.554688 C 391.691406 324.007812 390.828125 324.414062 389.945312 324.78125 C 389.0625 325.144531 388.167969 325.464844 387.253906 325.742188 C 386.339844 326.019531 385.414062 326.253906 384.476562 326.441406 C 383.539062 326.625 382.597656 326.765625 381.648438 326.859375 C 380.695312 326.953125 379.742188 327 378.789062 327 L -3.886719 327 C -4.839844 327 -5.792969 326.953125 -6.746094 326.859375 C -7.695312 326.765625 -8.636719 326.625 -9.574219 326.441406 C -10.511719 326.253906 -11.4375 326.019531 -12.351562 325.742188 C -13.265625 325.464844 -14.164062 325.144531 -15.042969 324.78125 C -15.925781 324.414062 -16.789062 324.007812 -17.632812 323.554688 C -18.472656 323.105469 -19.292969 322.613281 -20.085938 322.085938 C -20.878906 321.554688 -21.644531 320.984375 -22.382812 320.378906 C -23.121094 319.773438 -23.828125 319.132812 -24.503906 318.457031 C -25.179688 317.78125 -25.820312 317.074219 -26.425781 316.335938 C -27.03125 315.597656 -27.597656 314.832031 -28.128906 314.035156 C -28.660156 313.242188 -29.148438 312.421875 -29.601562 311.582031 C -30.050781 310.738281 -30.457031 309.875 -30.824219 308.992188 C -31.1875 308.109375 -31.511719 307.210938 -31.789062 306.296875 C -32.066406 305.382812 -32.296875 304.457031 -32.484375 303.523438 C -32.667969 302.585938 -32.808594 301.640625 -32.902344 300.691406 C -32.996094 299.738281 -33.042969 298.785156 -33.042969 297.832031 L -33.042969 66.667969 C -33.042969 65.714844 -32.996094 64.761719 -32.902344 63.808594 C -32.808594 62.859375 -32.667969 61.914062 -32.484375 60.976562 C -32.296875 60.042969 -32.066406 59.117188 -31.789062 58.203125 C -31.511719 57.289062 -31.1875 56.390625 -30.824219 55.507812 C -30.457031 54.625 -30.050781 53.761719 -29.601562 52.917969 C -29.148438 52.078125 -28.660156 51.257812 -28.128906 50.464844 C -27.597656 49.667969 -27.03125 48.902344 -26.425781 48.164062 C -25.820312 47.425781 -25.179688 46.71875 -24.503906 46.042969 C -23.828125 45.367188 -23.121094 44.726562 -22.382812 44.121094 C -21.644531 43.515625 -20.878906 42.945312 -20.085938 42.414062 C -19.292969 41.886719 -18.472656 41.394531 -17.632812 40.945312 C -16.789062 40.492188 -15.925781 40.085938 -15.042969 39.71875 C -14.164062 39.355469 -13.265625 39.035156 -12.351562 38.757812 C -11.4375 38.480469 -10.511719 38.246094 -9.574219 38.058594 C -8.636719 37.875 -7.695312 37.734375 -6.746094 37.640625 C -5.792969 37.546875 -4.839844 37.5 -3.886719 37.5 Z M -3.886719 37.5 " fill-opacity="1" fill-rule="nonzero"/></g><path fill="#35354b" d="M 357.28125 231.734375 L 351.246094 233.488281 L 318.792969 192.65625 L 312.996094 185.359375 L 313.074219 185.820312 L 311.003906 232.492188 L 306.222656 232.492188 L 303.292969 167.246094 L 309.328125 165.332031 L 347.5 213.183594 L 349.667969 162.121094 L 354.253906 162.121094 Z M 357.28125 231.734375 " fill-opacity="1" fill-rule="nonzero"/><path fill="#35354b" d="M 128.484375 219.101562 L 126.074219 231.734375 L 83.800781 231.734375 L 83.800781 226.914062 L 83.820312 226.914062 L 84.699219 226.832031 C 85.933594 226.734375 86.910156 226.613281 87.625 226.476562 C 88.203125 226.335938 88.621094 226.15625 88.882812 225.898438 C 89.058594 225.71875 89.578125 224.960938 89.578125 221.871094 L 89.578125 188.289062 C 89.578125 185.042969 89.121094 184.484375 89.101562 184.464844 C 88.703125 184.105469 88.222656 183.867188 87.644531 183.765625 C 86.929688 183.625 85.933594 183.507812 84.699219 183.386719 L 83.800781 183.308594 L 83.800781 178.484375 L 128.027344 178.484375 L 124.023438 194.886719 L 118.863281 194.886719 L 119.082031 193.710938 C 119.539062 191.257812 119.757812 189.445312 119.757812 188.371094 C 119.757812 187.09375 119.578125 186.417969 119.421875 186.058594 C 119.242188 185.621094 118.921875 185.300781 118.464844 185.042969 C 117.804688 184.664062 116.273438 184.226562 112.546875 184.226562 L 98.34375 184.226562 L 98.34375 201.542969 L 118.5625 201.542969 L 117.1875 207.34375 L 98.34375 207.34375 L 98.34375 221.871094 C 98.34375 223.085938 98.421875 224.023438 98.5625 224.679688 C 98.683594 225.140625 98.921875 225.457031 99.320312 225.699219 C 99.460938 225.796875 99.699219 225.898438 99.996094 225.996094 L 114.621094 225.996094 C 118.324219 225.996094 119.859375 225.558594 120.535156 225.179688 C 120.972656 224.941406 121.691406 224.222656 121.910156 223.804688 C 122.746094 222.191406 122.667969 222.488281 123.125 220.296875 L 123.324219 219.101562 Z M 128.484375 219.101562 " fill-opacity="1" fill-rule="nonzero"/><path fill="#35354b" d="M 206.730469 91.691406 C 206.808594 91.613281 207.46875 91.253906 210.8125 90.914062 L 211.710938 90.835938 L 211.710938 86.152344 L 191.332031 86.152344 L 191.332031 90.835938 L 192.226562 90.914062 C 195.492188 91.234375 196.132812 91.574219 196.230469 91.632812 C 196.550781 91.871094 197.089844 92.609375 197.089844 95.019531 L 197.089844 105.183594 C 196.050781 104.386719 194.875 103.710938 193.601562 103.171875 C 192.507812 102.714844 191.332031 102.335938 190.054688 102.074219 C 187.703125 101.597656 184.476562 101.457031 181.230469 102.613281 C 179.617188 103.191406 178.101562 103.988281 176.789062 105.023438 C 175.453125 106.019531 174.277344 107.238281 173.261719 108.613281 C 172.265625 109.988281 171.410156 111.5 170.773438 113.097656 C 169.417969 116.40625 168.71875 119.933594 168.71875 123.640625 C 168.71875 129.636719 170.394531 134.878906 173.71875 139.222656 C 174.9375 140.796875 176.351562 142.132812 177.945312 143.210938 C 179.339844 144.1875 180.890625 144.964844 182.566406 145.519531 C 184.378906 146.140625 186.152344 146.4375 187.84375 146.4375 C 189.917969 146.4375 192.128906 146.320312 194.378906 146.101562 C 198.503906 145.660156 201.070312 145.441406 202.007812 145.441406 L 211.710938 145.441406 L 211.710938 140.738281 L 210.792969 140.660156 C 207.40625 140.378906 206.828125 139.859375 206.769531 139.800781 C 206.371094 139.402344 206.152344 138.984375 206.070312 138.527344 C 205.972656 137.929688 205.914062 137.109375 205.914062 136.09375 L 205.914062 95.019531 C 205.914062 92.570312 206.46875 91.871094 206.730469 91.691406 Z M 180.734375 135.636719 C 179.078125 132.6875 178.242188 128.640625 178.242188 123.640625 C 178.242188 116.425781 179.816406 111.5 182.902344 108.949219 C 183.980469 108.074219 185.195312 107.636719 186.628906 107.636719 C 188.164062 107.636719 189.558594 107.875 190.773438 108.3125 C 192.007812 108.773438 193.105469 109.390625 194.039062 110.167969 C 196.089844 111.839844 197.089844 113.734375 197.089844 115.984375 L 197.089844 134.621094 C 197.089844 136.472656 196.609375 137.828125 195.613281 138.746094 C 194.238281 139.941406 191.808594 140.558594 188.363281 140.558594 C 187.882812 140.558594 187.425781 140.519531 186.96875 140.441406 C 184.316406 140.0625 182.265625 138.488281 180.734375 135.636719 Z M 180.734375 135.636719 " fill-opacity="1" fill-rule="nonzero"/><path fill="#35354b" d="M 80.949219 162.121094 L 76.882812 162.121094 L 33.914062 116.246094 L 36.425781 111.164062 L 40.390625 111.164062 C 43.617188 111.164062 46.246094 109.925781 48.476562 107.417969 C 51.027344 104.445312 52.324219 100.441406 52.324219 95.480469 C 52.324219 92.550781 51.882812 90.097656 50.988281 88.125 C 49.09375 83.839844 45.109375 81.746094 38.976562 81.746094 C 32.441406 81.746094 28.777344 83.382812 28.078125 86.589844 C 27.859375 87.605469 27.761719 88.683594 27.761719 89.820312 L 27.761719 132.566406 C 27.761719 134.242188 27.839844 135.515625 28 136.394531 C 28.136719 137.109375 28.398438 137.628906 28.816406 137.96875 C 29.253906 138.347656 29.953125 138.625 30.90625 138.785156 C 32.042969 138.984375 33.558594 139.183594 35.390625 139.382812 L 38.65625 139.742188 L 38.65625 145.28125 L 9.234375 145.28125 L 9.234375 139.761719 L 11.5625 139.421875 C 12.878906 139.242188 13.855469 139.0625 14.613281 138.886719 C 15.191406 138.746094 15.628906 138.507812 15.925781 138.148438 C 16.207031 137.808594 16.824219 136.652344 16.824219 132.566406 L 16.824219 88.046875 C 16.824219 84.417969 16.285156 83.601562 16.125 83.421875 C 15.589844 82.882812 14.910156 82.503906 14.074219 82.285156 C 13.117188 82.027344 11.785156 81.828125 10.128906 81.6875 L 9.234375 81.628906 L 9.234375 75.929688 L 21.644531 75.929688 C 23.316406 75.929688 25.507812 75.808594 28.21875 75.570312 C 33.578125 75.171875 37.800781 74.953125 40.808594 74.953125 C 43.894531 74.953125 47.0625 75.46875 50.210938 76.503906 C 51.40625 76.882812 52.523438 77.34375 53.558594 77.839844 C 55.308594 78.65625 56.84375 79.65625 58.160156 80.789062 C 62.222656 84.378906 64.296875 89.160156 64.296875 95 C 64.296875 99.386719 62.960938 103.511719 60.332031 107.277344 C 57.601562 111.242188 53.636719 114.230469 48.539062 116.125 Z M 80.949219 162.121094 " fill-opacity="1" fill-rule="nonzero"/><path fill="#35354b" d="M 160.035156 140.636719 C 158.898438 140.539062 158.003906 140.398438 157.324219 140.261719 C 156.828125 140.140625 156.410156 139.902344 156.050781 139.523438 C 156.011719 139.464844 155.59375 138.863281 155.59375 135.535156 L 155.59375 114.53125 C 155.59375 112.71875 155.273438 111.042969 154.636719 109.546875 C 153.601562 107.078125 151.746094 105.242188 149.097656 104.027344 C 146.609375 102.890625 143.378906 102.3125 139.476562 102.3125 C 134.65625 102.3125 130.570312 103.210938 127.34375 104.984375 C 125.808594 105.820312 124.617188 106.839844 123.757812 107.972656 C 122.84375 109.191406 122.382812 110.40625 122.382812 111.582031 L 122.382812 111.660156 C 122.402344 112.777344 122.664062 113.753906 123.179688 114.472656 C 124.515625 116.464844 126.667969 117.738281 129.574219 118.21875 L 129.933594 118.277344 L 133.421875 116.1875 L 132.84375 115.308594 C 132.125 114.230469 131.746094 113.296875 131.746094 112.597656 C 131.746094 111.859375 131.886719 111.242188 132.183594 110.683594 C 133.300781 108.75 135.371094 107.816406 138.539062 107.816406 C 145.75 107.816406 146.765625 111.023438 146.828125 113.554688 L 146.828125 118.675781 C 138.441406 118.976562 131.847656 120.867188 127.246094 124.277344 C 123.121094 127.265625 121.03125 130.652344 121.03125 134.300781 C 121.03125 137.648438 122.265625 140.460938 124.675781 142.652344 C 124.914062 142.851562 125.152344 143.050781 125.414062 143.230469 C 126.527344 144.085938 127.863281 144.765625 129.417969 145.324219 C 131.289062 145.980469 133.5 146.320312 135.929688 146.320312 C 138.28125 146.320312 141.6875 146.121094 146.070312 145.699219 C 148.140625 145.542969 150.035156 145.441406 151.648438 145.441406 L 160.949219 145.441406 L 160.949219 140.71875 Z M 130.691406 134.300781 C 130.691406 128.320312 135.96875 125.035156 146.828125 124.195312 L 146.828125 135 C 146.828125 136.273438 146.726562 137.332031 146.546875 138.109375 C 146.410156 138.746094 146.109375 139.222656 145.652344 139.5625 C 145.152344 139.960938 144.398438 140.242188 143.402344 140.398438 C 142.285156 140.578125 140.890625 140.679688 139.277344 140.679688 C 137.703125 140.679688 136.410156 140.519531 135.371094 140.199219 C 134.992188 140.101562 134.636719 139.980469 134.316406 139.839844 C 131.847656 138.84375 130.691406 137.050781 130.691406 134.300781 Z M 130.691406 134.300781 " fill-opacity="1" fill-rule="nonzero"/><path fill="#35354b" d="M 256.011719 103.53125 L 256.011719 133.683594 C 256.011719 136.691406 256.292969 137.550781 256.414062 137.789062 C 256.671875 138.285156 256.988281 138.644531 257.328125 138.84375 C 257.746094 139.085938 258.324219 139.285156 259.082031 139.421875 C 260.4375 139.664062 262.984375 139.820312 266.671875 139.859375 L 267.667969 139.882812 L 267.667969 145.441406 L 241.132812 145.441406 L 241.132812 140.441406 L 241.910156 140.28125 C 243.046875 140.019531 243.941406 139.800781 244.621094 139.601562 C 245.078125 139.484375 245.394531 139.285156 245.613281 139.003906 C 245.773438 138.785156 246.273438 137.828125 246.273438 133.804688 L 246.273438 103.53125 L 239.660156 103.53125 L 239.660156 98.128906 L 240.515625 97.988281 C 244.757812 97.390625 245.992188 96.894531 246.332031 96.695312 C 246.609375 96.296875 247.109375 95.160156 247.625 91.992188 C 248.066406 89.359375 248.324219 87.40625 248.425781 86.171875 L 248.484375 85.574219 L 256.011719 82.445312 L 256.011719 96.832031 L 269.980469 96.832031 L 269.980469 103.53125 Z M 256.011719 103.53125 " fill-opacity="1" fill-rule="nonzero"/><path fill="#35354b" d="M 64.578125 169.496094 C 62.484375 167.644531 60.117188 166.128906 57.464844 164.933594 C 52.585938 162.699219 46.789062 161.585938 40.132812 161.585938 C 39 161.585938 36.828125 161.683594 33.519531 161.902344 L 30.375 162.121094 C 29.179688 162.183594 27.921875 162.203125 26.609375 162.203125 L 9.335938 162.164062 L 9.277344 162.164062 L 9.277344 167.941406 L 10.195312 168.023438 C 11.808594 168.160156 13.121094 168.320312 14.097656 168.5 C 14.914062 168.640625 15.59375 168.957031 16.148438 169.476562 C 16.230469 169.554688 16.847656 170.234375 16.886719 174.300781 L 16.886719 218.863281 C 16.886719 222.925781 16.167969 224.042969 15.871094 224.363281 C 15.472656 224.742188 14.875 225.039062 14.058594 225.21875 C 13.082031 225.417969 11.765625 225.660156 10.132812 225.878906 L 9.296875 225.996094 L 9.277344 225.996094 L 9.277344 231.515625 L 23.082031 231.476562 C 23.757812 231.476562 24.796875 231.539062 26.191406 231.675781 L 31.726562 232.253906 C 34 232.492188 36.589844 232.613281 39.398438 232.613281 C 50.375 232.613281 59.097656 229.046875 65.335938 221.992188 C 71.332031 215.175781 74.378906 205.949219 74.378906 194.566406 C 74.378906 183.585938 71.09375 175.136719 64.578125 169.496094 Z M 35.671875 225.21875 C 32.085938 224.660156 27.804688 223.464844 27.804688 220.972656 L 27.804688 172.046875 C 27.804688 171.351562 28.082031 170.8125 28.640625 170.375 C 30.691406 168.820312 34.117188 168.023438 38.859375 168.023438 C 46.371094 168.023438 52.128906 169.875 55.992188 173.523438 C 58.042969 175.414062 59.65625 177.984375 60.792969 181.117188 C 61.050781 181.792969 61.269531 182.53125 61.449219 183.308594 C 62.1875 186.117188 62.546875 189.527344 62.546875 193.472656 C 62.546875 198.535156 62.109375 203.199219 61.289062 207.304688 C 58.742188 219.640625 51.925781 225.660156 40.492188 225.660156 L 40.414062 225.660156 C 38.898438 225.660156 37.324219 225.5 35.671875 225.21875 Z M 35.671875 225.21875 " fill-opacity="1" fill-rule="nonzero"/><path fill="#35354b" d="M 187.113281 178.523438 L 187.113281 183.308594 L 186.234375 183.40625 C 184.5 183.644531 184.042969 184.066406 183.945312 184.183594 C 183.546875 184.664062 183.246094 185.140625 183.046875 185.640625 L 163.605469 233.75 L 159.917969 233.75 L 141.8125 189.605469 L 140.875 187.3125 C 140.136719 185.460938 139.660156 184.863281 139.460938 184.683594 C 138.761719 183.984375 137.765625 183.546875 136.472656 183.386719 L 135.617188 183.269531 L 135.617188 178.484375 L 154.421875 178.484375 L 154.421875 183.367188 L 153.464844 183.386719 C 150.136719 183.507812 149.242188 183.945312 149.003906 184.125 L 148.921875 184.183594 C 148.984375 184.363281 149.101562 184.761719 149.402344 185.519531 L 162.410156 218.820312 C 162.828125 217.746094 163.226562 216.691406 163.605469 215.671875 C 169.421875 200.425781 172.628906 191.917969 173.1875 190.363281 L 173.265625 190.144531 L 174.582031 186.296875 C 175.058594 184.980469 175.058594 184.621094 175.058594 184.582031 C 175.058594 184.542969 175.058594 184.402344 174.898438 184.164062 C 174.800781 184.003906 174.621094 183.886719 174.363281 183.804688 C 173.902344 183.625 172.945312 183.425781 170.875 183.425781 L 169.878906 183.425781 L 169.878906 178.523438 Z M 187.113281 178.523438 " fill-opacity="1" fill-rule="nonzero"/><path fill="#35354b" d="M 231.933594 219.480469 L 234.703125 223.207031 L 234.324219 223.804688 C 232.511719 226.496094 229.921875 228.667969 226.632812 230.261719 C 223.367188 231.816406 219.421875 232.613281 214.859375 232.613281 C 209.5625 232.613281 204.921875 231.515625 200.976562 229.324219 C 198.664062 228.03125 196.574219 226.375 194.761719 224.34375 C 190.277344 219.28125 188.007812 212.941406 188.007812 205.488281 C 188.007812 200.824219 189.042969 196.339844 191.054688 192.214844 C 194.34375 185.519531 199.660156 181.035156 206.871094 178.902344 C 209.363281 178.1875 211.652344 177.808594 213.6875 177.808594 C 215.679688 177.808594 217.152344 177.867188 218.089844 177.964844 C 219.023438 178.066406 219.878906 178.226562 220.636719 178.386719 C 221.414062 178.566406 222.113281 178.761719 222.75 178.964844 L 224.460938 179.539062 C 226.296875 180.179688 227.730469 180.496094 228.726562 180.496094 C 229.164062 180.496094 230.140625 180.199219 231.652344 178.144531 L 231.953125 177.746094 L 236.914062 177.746094 L 231.992188 197.496094 L 226.914062 197.496094 L 226.992188 196.421875 C 227.113281 195.125 227.171875 194.089844 227.171875 193.3125 C 227.171875 191.757812 227.011719 190.402344 226.695312 189.328125 C 226.394531 188.332031 225.878906 187.511719 225.140625 186.835938 C 224.363281 186.117188 223.40625 185.5 222.351562 185.003906 C 220.082031 183.984375 217.730469 183.46875 215.359375 183.46875 C 212.949219 183.46875 210.898438 183.765625 209.242188 184.363281 C 207.589844 184.941406 206.136719 185.757812 204.898438 186.777344 C 203.664062 187.8125 202.589844 189.027344 201.714844 190.421875 C 200.816406 191.859375 200.078125 193.414062 199.542969 195.046875 C 198.425781 198.214844 197.867188 201.800781 197.867188 205.707031 C 197.867188 211.007812 199.324219 215.632812 202.171875 219.460938 C 204.144531 222.089844 206.890625 223.984375 210.320312 225.078125 C 213.863281 226.234375 218.046875 226.035156 220.738281 225.597656 C 222.09375 225.378906 223.367188 225.019531 224.542969 224.5625 C 226.914062 223.664062 229.125 222.230469 231.117188 220.277344 Z M 231.933594 219.480469 " fill-opacity="1" fill-rule="nonzero"/><path fill="#35354b" d="M 286 186.597656 C 283.828125 183.90625 281.296875 181.832031 278.367188 180.378906 C 277.511719 179.941406 276.617188 179.5625 275.679688 179.242188 C 273.648438 178.523438 271.476562 178.066406 269.144531 177.90625 C 268.785156 177.867188 268.449219 177.847656 268.109375 177.847656 C 267.871094 177.828125 267.632812 177.828125 267.390625 177.828125 C 267.171875 177.808594 266.953125 177.808594 266.753906 177.808594 C 261.316406 177.808594 256.515625 179.222656 252.53125 181.972656 C 250.660156 183.269531 248.984375 184.824219 247.570312 186.578125 C 246.15625 188.332031 244.960938 190.242188 244.023438 192.277344 C 243.109375 194.328125 242.390625 196.5 241.933594 198.714844 C 241.476562 200.945312 241.257812 203.199219 241.257812 205.449219 C 241.257812 212.761719 243.367188 219.023438 247.53125 224.042969 C 249.085938 225.917969 250.820312 227.453125 252.769531 228.707031 C 256.65625 231.199219 261.335938 232.453125 266.753906 232.453125 C 274.863281 232.453125 281.335938 229.644531 285.980469 224.125 C 290.183594 219.140625 292.3125 212.84375 292.3125 205.449219 C 292.3125 198.117188 290.183594 191.777344 286 186.597656 Z M 281.136719 215.953125 C 278.945312 223.425781 274.265625 227.074219 266.835938 227.074219 C 265.800781 227.074219 264.824219 226.992188 263.886719 226.851562 C 261.238281 226.457031 258.984375 225.480469 257.191406 223.925781 C 256.058594 222.949219 255.121094 221.75 254.363281 220.417969 C 253.605469 219.042969 252.988281 217.527344 252.53125 215.933594 C 252.074219 214.316406 251.734375 212.605469 251.535156 210.832031 C 251.335938 209.035156 251.238281 206.664062 251.238281 203.796875 C 251.238281 200.964844 251.675781 197.976562 252.550781 194.925781 C 254.703125 187.195312 259.382812 183.425781 266.835938 183.425781 C 268.925781 183.425781 270.777344 183.726562 272.351562 184.304688 C 276.117188 185.699219 278.847656 188.570312 280.519531 192.855469 C 281.796875 196.183594 282.453125 200.386719 282.453125 205.449219 C 282.453125 209.496094 282.015625 213.023438 281.136719 215.953125 Z M 281.136719 215.953125 " fill-opacity="1" fill-rule="nonzero"/><path fill="#35354b" d="M 373.6875 112.476562 L 351.933594 74.691406 L 330.179688 112.476562 L 351.933594 126.347656 Z M 353.527344 99.800781 L 353.527344 83.777344 L 367.3125 107.695312 Z M 368.585938 112 L 353.527344 121.5625 L 353.527344 103.46875 Z M 350.339844 99.800781 L 336.632812 107.613281 L 350.339844 83.777344 Z M 350.339844 103.46875 L 350.339844 121.5625 L 335.277344 112 Z M 350.339844 103.46875 " fill-opacity="1" fill-rule="nonzero"/><path fill="#35354b" d="M 351.933594 130.8125 L 330.179688 116.941406 L 351.933594 148.75 L 373.6875 116.941406 Z M 350.257812 133.523438 L 350.339844 133.601562 L 350.339844 140.855469 L 341.574219 127.941406 Z M 362.371094 127.941406 L 353.527344 140.855469 L 353.527344 133.601562 L 353.605469 133.523438 Z M 362.371094 127.941406 " fill-opacity="1" fill-rule="nonzero"/><path fill="#35354b" d="M 306.761719 109.046875 C 304.769531 106.558594 302.335938 104.765625 299.488281 103.667969 C 297.21875 102.75 294.707031 102.3125 291.917969 102.3125 C 287.816406 102.3125 284.148438 103.367188 281.023438 105.480469 C 279.566406 106.476562 278.253906 107.671875 277.160156 109.046875 C 276.042969 110.402344 275.125 111.898438 274.390625 113.511719 C 273.652344 115.105469 273.113281 116.820312 272.753906 118.613281 C 272.398438 120.386719 272.21875 122.203125 272.21875 124.015625 C 272.21875 129.894531 273.851562 135.015625 277.078125 139.203125 C 278.351562 140.835938 279.789062 142.171875 281.378906 143.226562 C 284.351562 145.242188 287.875 146.238281 291.917969 146.238281 C 298.15625 146.238281 303.15625 143.90625 306.78125 139.300781 C 310.046875 135.117188 311.722656 129.972656 311.722656 124.035156 C 311.722656 118.136719 310.046875 113.09375 306.761719 109.046875 Z M 283.492188 134.5 C 282.398438 131.847656 281.839844 128.359375 281.839844 124.035156 C 281.839844 121.105469 282.136719 118.496094 282.714844 116.28125 C 284.128906 110.644531 287.179688 107.914062 292 107.914062 C 294.570312 107.914062 296.601562 108.648438 298.195312 110.183594 C 298.929688 110.902344 299.570312 111.777344 300.066406 112.753906 C 300.246094 113.113281 300.40625 113.472656 300.566406 113.871094 C 300.625 114.011719 300.683594 114.171875 300.746094 114.328125 C 300.964844 114.886719 301.164062 115.484375 301.320312 116.101562 C 301.640625 117.300781 301.859375 118.59375 301.980469 119.929688 C 302.117188 121.285156 302.179688 123.097656 302.179688 125.332031 C 302.179688 127.503906 301.878906 129.734375 301.300781 131.96875 C 300.984375 133.203125 300.566406 134.359375 300.066406 135.414062 C 299.550781 136.453125 298.929688 137.347656 298.175781 138.125 C 297.457031 138.863281 296.5625 139.460938 295.566406 139.898438 C 293.53125 140.734375 290.425781 140.757812 288.394531 139.878906 C 288.292969 139.839844 288.195312 139.78125 288.09375 139.71875 C 286.0625 138.765625 284.527344 137.03125 283.492188 134.5 Z M 283.492188 134.5 " fill-opacity="1" fill-rule="nonzero"/><path fill="#35354b" d="M 108.308594 109.046875 C 106.316406 106.558594 103.886719 104.765625 101.035156 103.667969 C 98.765625 102.75 96.257812 102.3125 93.464844 102.3125 C 89.363281 102.3125 85.699219 103.367188 82.570312 105.480469 C 81.117188 106.476562 79.800781 107.671875 78.707031 109.046875 C 77.589844 110.402344 76.671875 111.898438 75.9375 113.511719 C 75.199219 115.105469 74.660156 116.820312 74.304688 118.613281 C 73.945312 120.386719 73.765625 122.203125 73.765625 124.015625 C 73.765625 129.894531 75.398438 135.015625 78.625 139.203125 C 79.902344 140.835938 81.335938 142.171875 82.929688 143.226562 C 85.898438 145.242188 89.421875 146.238281 93.464844 146.238281 C 99.703125 146.238281 104.703125 143.90625 108.328125 139.300781 C 111.59375 135.117188 113.269531 129.972656 113.269531 124.035156 C 113.269531 118.136719 111.59375 113.09375 108.308594 109.046875 Z M 85.039062 134.5 C 83.945312 131.847656 83.386719 128.359375 83.386719 124.035156 C 83.386719 121.105469 83.6875 118.496094 84.261719 116.28125 C 85.675781 110.644531 88.726562 107.914062 93.546875 107.914062 C 96.117188 107.914062 98.148438 108.648438 99.742188 110.183594 C 100.480469 110.902344 101.117188 111.777344 101.613281 112.753906 C 101.773438 113.09375 101.953125 113.453125 102.09375 113.832031 C 102.171875 113.992188 102.230469 114.152344 102.292969 114.328125 C 102.511719 114.886719 102.710938 115.484375 102.871094 116.101562 C 103.1875 117.300781 103.40625 118.59375 103.527344 119.929688 C 103.667969 121.285156 103.726562 123.097656 103.726562 125.332031 C 103.726562 127.503906 103.425781 129.734375 102.851562 131.96875 C 102.53125 133.203125 102.113281 134.359375 101.613281 135.414062 C 101.097656 136.453125 100.480469 137.347656 99.722656 138.125 C 99.003906 138.863281 98.109375 139.460938 97.113281 139.898438 C 95.082031 140.734375 91.972656 140.757812 89.941406 139.878906 C 89.839844 139.839844 89.742188 139.78125 89.640625 139.71875 C 87.609375 138.765625 86.078125 137.03125 85.039062 134.5 Z M 85.039062 134.5 " fill-opacity="1" fill-rule="nonzero"/><path fill="#35354b" d="M 30.375 285.75 L 32.082031 281.953125 C 33.917969 283.292969 36.652344 284.226562 39.265625 284.226562 C 42.25 284.226562 43.460938 283.230469 43.460938 281.894531 C 43.460938 277.816406 30.804688 280.617188 30.804688 272.527344 C 30.804688 268.828125 33.789062 265.746094 39.976562 265.746094 C 42.710938 265.746094 45.511719 266.398438 47.535156 267.675781 L 45.980469 271.5 C 43.957031 270.351562 41.875 269.792969 39.949219 269.792969 C 36.960938 269.792969 35.8125 270.910156 35.8125 272.28125 C 35.8125 276.292969 48.46875 273.523438 48.46875 281.519531 C 48.46875 285.160156 45.453125 288.273438 39.234375 288.273438 C 35.78125 288.273438 32.300781 287.246094 30.371094 285.75 Z M 30.375 285.75 " fill-opacity="1" fill-rule="nonzero"/><path fill="#35354b" d="M 52.886719 277.007812 C 52.886719 270.535156 57.925781 265.746094 64.796875 265.746094 C 71.671875 265.746094 76.707031 270.503906 76.707031 277.007812 C 76.707031 283.511719 71.640625 288.269531 64.796875 288.269531 C 57.953125 288.269531 52.886719 283.480469 52.886719 277.007812 Z M 71.605469 277.007812 C 71.605469 272.871094 68.679688 270.039062 64.796875 270.039062 C 60.910156 270.039062 57.988281 272.867188 57.988281 277.007812 C 57.988281 281.148438 60.910156 283.976562 64.796875 283.976562 C 68.679688 283.976562 71.605469 281.148438 71.605469 277.007812 Z M 71.605469 277.007812 " fill-opacity="1" fill-rule="nonzero"/><path fill="#35354b" d="M 82.648438 278.316406 L 82.648438 266.121094 L 87.6875 266.121094 L 87.6875 278.128906 C 87.6875 282.265625 89.488281 283.976562 92.539062 283.976562 C 95.617188 283.976562 97.390625 282.265625 97.390625 278.128906 L 97.390625 266.121094 L 102.367188 266.121094 L 102.367188 278.316406 C 102.367188 284.722656 98.695312 288.269531 92.507812 288.269531 C 86.320312 288.269531 82.648438 284.722656 82.648438 278.316406 Z M 82.648438 278.316406 " fill-opacity="1" fill-rule="nonzero"/><path fill="#35354b" d="M 113.808594 270.226562 L 106.84375 270.226562 L 106.84375 266.117188 L 125.8125 266.117188 L 125.8125 270.226562 L 118.847656 270.226562 L 118.847656 287.894531 L 113.808594 287.894531 Z M 113.808594 270.226562 " fill-opacity="1" fill-rule="nonzero"/><path fill="#35354b" d="M 150.816406 266.121094 L 150.816406 287.898438 L 145.777344 287.898438 L 145.777344 278.96875 L 135.890625 278.96875 L 135.890625 287.898438 L 130.851562 287.898438 L 130.851562 266.121094 L 135.890625 266.121094 L 135.890625 274.707031 L 145.777344 274.707031 L 145.777344 266.121094 Z M 150.816406 266.121094 " fill-opacity="1" fill-rule="nonzero"/><path fill="#35354b" d="M 175.164062 283.851562 L 175.164062 287.894531 L 158.3125 287.894531 L 158.3125 266.117188 L 174.761719 266.117188 L 174.761719 270.160156 L 163.316406 270.160156 L 163.316406 274.890625 L 173.425781 274.890625 L 173.425781 278.8125 L 163.316406 278.8125 L 163.316406 283.851562 Z M 175.164062 283.851562 " fill-opacity="1" fill-rule="nonzero"/><path fill="#35354b" d="M 195.84375 283.230469 L 185.742188 283.230469 L 183.8125 287.894531 L 178.648438 287.894531 L 188.351562 266.117188 L 193.328125 266.117188 L 203.058594 287.894531 L 197.773438 287.894531 Z M 194.257812 279.402344 L 190.808594 271.066406 L 187.359375 279.402344 Z M 194.257812 279.402344 " fill-opacity="1" fill-rule="nonzero"/><path fill="#35354b" d="M 205.953125 285.75 L 207.664062 281.953125 C 209.496094 283.292969 212.230469 284.226562 214.84375 284.226562 C 217.828125 284.226562 219.042969 283.230469 219.042969 281.894531 C 219.042969 277.816406 206.382812 280.617188 206.382812 272.527344 C 206.382812 268.828125 209.371094 265.746094 215.558594 265.746094 C 218.292969 265.746094 221.089844 266.398438 223.113281 267.675781 L 221.558594 271.5 C 219.535156 270.351562 217.453125 269.792969 215.527344 269.792969 C 212.539062 269.792969 211.390625 270.910156 211.390625 272.28125 C 211.390625 276.292969 224.046875 273.523438 224.046875 281.519531 C 224.046875 285.160156 221.03125 288.273438 214.8125 288.273438 C 211.363281 288.273438 207.878906 287.246094 205.949219 285.75 Z M 205.953125 285.75 " fill-opacity="1" fill-rule="nonzero"/><path fill="#35354b" d="M 234.035156 270.226562 L 227.070312 270.226562 L 227.070312 266.117188 L 246.035156 266.117188 L 246.035156 270.226562 L 239.070312 270.226562 L 239.070312 287.894531 L 234.035156 287.894531 Z M 234.035156 270.226562 " fill-opacity="1" fill-rule="nonzero"/><path fill="#35354b" d="M 276.542969 283.230469 L 266.441406 283.230469 L 264.511719 287.894531 L 259.347656 287.894531 L 269.050781 266.117188 L 274.027344 266.117188 L 283.761719 287.894531 L 278.476562 287.894531 Z M 274.957031 279.402344 L 271.507812 271.066406 L 268.058594 279.402344 Z M 274.957031 279.402344 " fill-opacity="1" fill-rule="nonzero"/><path fill="#35354b" d="M 286.652344 285.75 L 288.363281 281.953125 C 290.195312 283.292969 292.929688 284.226562 295.542969 284.226562 C 298.527344 284.226562 299.742188 283.230469 299.742188 281.894531 C 299.742188 277.816406 287.082031 280.617188 287.082031 272.527344 C 287.082031 268.828125 290.070312 265.746094 296.257812 265.746094 C 298.992188 265.746094 301.789062 266.398438 303.8125 267.675781 L 302.257812 271.5 C 300.234375 270.351562 298.152344 269.792969 296.226562 269.792969 C 293.238281 269.792969 292.089844 270.910156 292.089844 272.28125 C 292.089844 276.292969 304.746094 273.523438 304.746094 281.519531 C 304.746094 285.160156 301.730469 288.273438 295.511719 288.273438 C 292.0625 288.273438 288.578125 287.246094 286.648438 285.75 Z M 286.652344 285.75 " fill-opacity="1" fill-rule="nonzero"/><path fill="#35354b" d="M 310.535156 266.121094 L 315.570312 266.121094 L 315.570312 287.898438 L 310.535156 287.898438 Z M 310.535156 266.121094 " fill-opacity="1" fill-rule="nonzero"/><path fill="#35354b" d="M 337.402344 283.230469 L 327.296875 283.230469 L 325.367188 287.894531 L 320.207031 287.894531 L 329.90625 266.117188 L 334.882812 266.117188 L 344.617188 287.894531 L 339.332031 287.894531 Z M 335.816406 279.402344 L 332.363281 271.066406 L 328.914062 279.402344 Z M 335.816406 279.402344 " fill-opacity="1" fill-rule="nonzero"/></svg>